<svg preserveAspectRatio="none" width="100%" height="100%" overflow="visible" style="display: block;" viewBox="0 0 32 32" fill="none" xmlns="http://www.w3.org/2000/svg">
<g id="sun-horizon 1">
<g id="Vector">
</g>
<path id="Vector_2" d="M27.7333 19.2H5.33333" stroke="var(--stroke-0, white)" stroke-width="1.5" stroke-linecap="round" stroke-linejoin="round"/>
<path id="Vector_3" d="M24.5333 23.4667H8.53333" stroke="var(--stroke-0, white)" stroke-width="1.5" stroke-linecap="round" stroke-linejoin="round"/>
<g id="Vector_4">
<path d="M9.8 19.2C9.558 18.3165 9.5353 17.3929 9.73363 16.4999C9.93196 15.6069 10.3461 14.7681 10.9443 14.0476C11.5426 13.3271 12.3091 12.7441 13.1854 12.343C14.0616 11.9419 15.0243 11.7333 16 11.7333C16.9757 11.7333 17.9384 11.9419 18.8146 12.343C19.6909 12.7441 20.4574 13.3271 21.0557 14.0476C21.6539 14.7681 22.068 15.6069 22.2664 16.4999C22.4647 17.3929 22.442 18.3165 22.2 19.2" fill="var(--fill-0, white)"/>
<path d="M9.8 19.2C9.558 18.3165 9.5353 17.3929 9.73363 16.4999C9.93196 15.6069 10.3461 14.7681 10.9443 14.0476C11.5426 13.3271 12.3091 12.7441 13.1854 12.343C14.0616 11.9419 15.0243 11.7333 16 11.7333C16.9757 11.7333 17.9384 11.9419 18.8146 12.343C19.6909 12.7441 20.4574 13.3271 21.0557 14.0476C21.6539 14.7681 22.068 15.6069 22.2664 16.4999C22.4647 17.3929 22.442 18.3165 22.2 19.2" stroke="var(--stroke-0, white)" stroke-width="1.5" stroke-linecap="round" stroke-linejoin="round"/>
</g>
<path id="Vector_5" d="M11.7333 7.46667V8.53333" stroke="var(--stroke-0, white)" stroke-width="1.5" stroke-linecap="round" stroke-linejoin="round"/>
<path id="Vector_6" d="M5.33333 12.8L7.46667 13.8667" stroke="var(--stroke-0, white)" stroke-width="1.5" stroke-linecap="round" stroke-linejoin="round"/>
<path id="Vector_7" d="M26.6667 12.8L24.5333 13.8667" stroke="var(--stroke-0, white)" stroke-width="1.5" stroke-linecap="round" stroke-linejoin="round"/>
<path id="Vector_8" d="M21.3333 7.46667L20.2667 8.53333" stroke="var(--stroke-0, white)" stroke-width="1.5" stroke-linecap="round" stroke-linejoin="round"/>
</g>
</svg>
