<?xml version="1.0" encoding="utf-8"?>
<svg xmlns="http://www.w3.org/2000/svg" fill="none" height="100%" overflow="visible" preserveAspectRatio="none" style="display: block;" viewBox="0 0 108 108" width="100%">
<g id="Frame 2049518975">
<g filter="url(#filter0_f_0_84)" id="Frame 24">
<path d="M24 46.9748C24 34.2862 34.2862 24 46.9748 24H61.0252C73.7138 24 84 34.2862 84 46.9748V61.0252C84 73.7138 73.7138 84 61.0252 84H46.9748C34.2862 84 24 73.7138 24 61.0252V46.9748Z" fill="var(--fill-0, #EBE72C)"/>
</g>
<g id="star-four 1">
<path d="M57.9775 57.8877L54.935 66.2552C54.864 66.4465 54.7361 66.6116 54.5685 66.7281C54.4009 66.8447 54.2016 66.9072 53.9975 66.9072C53.7934 66.9072 53.5941 66.8447 53.4265 66.7281C53.2589 66.6116 53.131 66.4465 53.06 66.2552L50.0225 57.8877L41.655 54.8452C41.4636 54.7741 41.2986 54.6462 41.182 54.4786C41.0655 54.311 41.003 54.1118 41.003 53.9077C41.003 53.7035 41.0655 53.5043 41.182 53.3367C41.2986 53.1691 41.4636 53.0412 41.655 52.9702L50.0225 49.9327L53.065 41.5652C53.136 41.3738 53.2639 41.2087 53.4315 41.0922C53.5991 40.9756 53.7984 40.9131 54.0025 40.9131C54.2066 40.9131 54.4059 40.9756 54.5735 41.0922C54.7411 41.2087 54.869 41.3738 54.94 41.5652L57.9825 49.9327L66.35 52.9752C66.5414 53.0462 66.7064 53.1741 66.823 53.3417C66.9395 53.5093 67.002 53.7085 67.002 53.9127C67.002 54.1168 66.9395 54.316 66.823 54.4836C66.7064 54.6512 66.5414 54.7791 66.35 54.8502L57.9775 57.8877Z" fill="var(--fill-0, white)" id="Vector"/>
<path d="M40.253 53.9073C40.2531 53.5502 40.3626 53.2014 40.5665 52.9083C40.7704 52.6152 41.0589 52.391 41.3936 52.2667L41.3995 52.2647L49.4366 49.3467L52.3604 41.3086L52.3614 41.3038H52.3624C52.4867 40.9692 52.71 40.6805 53.003 40.4766C53.2963 40.2726 53.6457 40.1631 54.003 40.1631C54.3601 40.1632 54.7089 40.2727 55.002 40.4766C55.2585 40.6551 55.4618 40.8984 55.5919 41.1807L55.6436 41.3038L55.6446 41.3086L58.5674 49.3467L66.6065 52.2706L66.6114 52.2715V52.2725C66.946 52.3968 67.2347 52.6202 67.4385 52.9131C67.6425 53.2064 67.752 53.5559 67.752 53.9131C67.7519 54.2702 67.6424 54.619 67.4385 54.9122C67.2346 55.2052 66.9461 55.4295 66.6114 55.5538L66.6055 55.5547L58.5626 58.4727L55.6397 66.5118L55.6378 66.5157C55.5135 66.8505 55.2903 67.1398 54.9971 67.3438C54.7038 67.5478 54.3544 67.6573 53.9971 67.6573C53.64 67.6572 53.2913 67.5477 52.9981 67.3438C52.7049 67.1398 52.4808 66.8505 52.3565 66.5157L52.3545 66.5108L49.4366 58.4727L41.3985 55.5499L41.3936 55.5479C41.059 55.4236 40.7703 55.2002 40.5665 54.9073C40.3625 54.614 40.253 54.2645 40.253 53.9073ZM41.753 53.9073C41.753 53.9583 41.7688 54.0089 41.7979 54.0508C41.827 54.0925 41.8684 54.1239 41.9161 54.1417H41.9151L50.2784 57.1827C50.487 57.2585 50.6518 57.4232 50.7276 57.6319L53.7628 65.9942L53.7999 66.0606C53.8152 66.0804 53.8337 66.0979 53.8545 66.1124C53.8963 66.1414 53.9462 66.1572 53.9971 66.1573C54.0482 66.1573 54.0988 66.1415 54.1407 66.1124C54.1615 66.0978 54.18 66.0804 54.1954 66.0606L54.2315 65.9942L57.2725 57.6309C57.3485 57.4224 57.5131 57.2584 57.7217 57.1827L66.0889 54.1465C66.1366 54.1288 66.178 54.0974 66.2071 54.0557C66.2361 54.014 66.2519 53.964 66.252 53.9131C66.252 53.8621 66.2362 53.8115 66.2071 53.7696C66.178 53.7279 66.1366 53.6965 66.0889 53.6788V53.6778L57.7266 50.6378C57.5181 50.5619 57.3532 50.397 57.2774 50.1885L54.2374 41.8262L54.2003 41.7598C54.1849 41.74 54.1664 41.7226 54.1456 41.7081C54.1038 41.679 54.0538 41.6632 54.003 41.6631C53.952 41.6631 53.9013 41.6789 53.8594 41.7081C53.8177 41.7372 53.7863 41.7785 53.7686 41.8262L53.7676 41.8253L50.7276 50.1885C50.6517 50.3972 50.4871 50.562 50.2784 50.6378L41.9151 53.6729C41.8676 53.6907 41.8269 53.7231 41.7979 53.7647C41.7688 53.8065 41.7531 53.8564 41.753 53.9073Z" fill="var(--fill-0, white)" id="Vector (Stroke)"/>
</g>
</g>
<defs>
<filter color-interpolation-filters="sRGB" filterUnits="userSpaceOnUse" height="108" id="filter0_f_0_84" width="108" x="0" y="0">
<feFlood flood-opacity="0" result="BackgroundImageFix"/>
<feBlend in="SourceGraphic" in2="BackgroundImageFix" mode="normal" result="shape"/>
<feGaussianBlur result="effect1_foregroundBlur_0_84" stdDeviation="12"/>
</filter>
</defs>
</svg>