<?xml version="1.0" encoding="utf-8"?>
<svg xmlns="http://www.w3.org/2000/svg" fill="none" height="100%" overflow="visible" preserveAspectRatio="none" style="display: block;" viewBox="0 0 108 108" width="100%">
<g id="Frame 2049518975">
<g filter="url(#filter0_f_0_60)" id="Frame 24">
<path d="M24 46.9748C24 34.2862 34.2862 24 46.9748 24H61.0252C73.7138 24 84 34.2862 84 46.9748V61.0252C84 73.7138 73.7138 84 61.0252 84H46.9748C34.2862 84 24 73.7138 24 61.0252V46.9748Z" fill="var(--fill-0, #D44333)"/>
</g>
<g id="sun-horizon 1">
<path d="M65.7337 56.3602C66.1478 56.3604 66.4837 56.6961 66.4837 57.1102C66.4837 57.5242 66.1478 57.8599 65.7337 57.8602H43.3333C42.9191 57.8602 42.5833 57.5244 42.5833 57.1102C42.5833 56.6959 42.9191 56.3602 43.3333 56.3602H65.7337Z" fill="var(--fill-0, white)" id="Vector (Stroke)"/>
<path d="M62.5333 60.6268C62.9475 60.6268 63.2833 60.9626 63.2833 61.3768C63.2833 61.791 62.9475 62.1268 62.5333 62.1268H46.5333C46.1191 62.1268 45.7833 61.791 45.7833 61.3768C45.7833 60.9626 46.1191 60.6268 46.5333 60.6268H62.5333Z" fill="var(--fill-0, white)" id="Vector (Stroke)_2"/>
<path d="M47.8 57.1102C47.558 56.2266 47.5353 55.303 47.7336 54.41C47.932 53.517 48.3461 52.6782 48.9443 51.9578C49.5426 51.2373 50.3091 50.6542 51.1854 50.2531C52.0616 49.852 53.0243 49.6435 54 49.6435C54.9757 49.6435 55.9384 49.852 56.8146 50.2531C57.6909 50.6542 58.4574 51.2373 59.0557 51.9578C59.6539 52.6782 60.068 53.517 60.2664 54.41C60.4647 55.303 60.442 56.2266 60.2 57.1102" fill="var(--fill-0, white)" id="Vector"/>
<path d="M54.0004 48.8935C55.0821 48.8935 56.1511 49.1249 57.1264 49.5712C58.1018 50.0177 58.96 50.6689 59.6322 51.4785C60.3046 52.2882 60.7736 53.235 60.9984 54.247C61.2233 55.2594 61.1974 56.3074 60.9232 57.3085C60.8138 57.7077 60.4016 57.943 60.0023 57.8339C59.6028 57.7245 59.3675 57.3115 59.477 56.912C59.6867 56.1461 59.7064 55.3458 59.5346 54.5722C59.3627 53.7985 59.0028 53.0674 58.4789 52.4365C57.9547 51.8053 57.2792 51.2911 56.5023 50.9355C55.7254 50.5798 54.8696 50.3935 54.0004 50.3935C53.1311 50.3935 52.2745 50.5798 51.4975 50.9355C50.7206 51.2911 50.045 51.8053 49.5209 52.4365C48.997 53.0674 48.6381 53.7986 48.4662 54.5722C48.2944 55.3459 48.314 56.1461 48.5238 56.912C48.6331 57.3114 48.3978 57.7244 47.9984 57.8339C47.599 57.9433 47.1861 57.7079 47.0766 57.3085C46.8024 56.3074 46.7765 55.2594 47.0014 54.247C47.2262 53.235 47.6952 52.2882 48.3676 51.4785C49.0399 50.6689 49.898 50.0178 50.8734 49.5712C51.8488 49.1248 52.9184 48.8935 54.0004 48.8935Z" fill="var(--fill-0, white)" id="Vector (Stroke)_3"/>
<path d="M48.9833 46.4432V45.3768C48.9833 44.9626 49.3191 44.6268 49.7333 44.6268C50.1475 44.6268 50.4833 44.9626 50.4833 45.3768V46.4432C50.4833 46.8574 50.1475 47.1932 49.7333 47.1932C49.3191 47.1932 48.9833 46.8574 48.9833 46.4432Z" fill="var(--fill-0, white)" id="Vector (Stroke)_4"/>
<path d="M42.6624 50.3752C42.8476 50.0048 43.2979 49.8543 43.6683 50.0393L45.8021 51.1057C46.1726 51.2909 46.3223 51.742 46.137 52.1125C45.9517 52.4827 45.5015 52.6326 45.1312 52.4475L42.9984 51.3811C42.628 51.1959 42.4775 50.7456 42.6624 50.3752Z" fill="var(--fill-0, white)" id="Vector (Stroke)_5"/>
<path d="M64.3312 50.0393C64.7017 49.854 65.1518 50.0047 65.337 50.3752C65.5221 50.7456 65.3725 51.1958 65.0021 51.3811L62.8683 52.4475C62.4979 52.6325 62.0477 52.4828 61.8624 52.1125C61.6772 51.742 61.8279 51.2909 62.1984 51.1057L64.3312 50.0393Z" fill="var(--fill-0, white)" id="Vector (Stroke)_6"/>
<path d="M58.8028 44.8466C59.0956 44.5537 59.5704 44.5538 59.8633 44.8466C60.1562 45.1394 60.1562 45.6142 59.8633 45.9071L58.7969 46.9735C58.504 47.2664 58.0293 47.2664 57.7364 46.9735C57.4436 46.6806 57.4435 46.2058 57.7364 45.913L58.8028 44.8466Z" fill="var(--fill-0, white)" id="Vector (Stroke)_7"/>
</g>
</g>
<defs>
<filter color-interpolation-filters="sRGB" filterUnits="userSpaceOnUse" height="108" id="filter0_f_0_60" width="108" x="0" y="0">
<feFlood flood-opacity="0" result="BackgroundImageFix"/>
<feBlend in="SourceGraphic" in2="BackgroundImageFix" mode="normal" result="shape"/>
<feGaussianBlur result="effect1_foregroundBlur_0_60" stdDeviation="12"/>
</filter>
</defs>
</svg>