<?xml version="1.0" encoding="utf-8"?>
<svg xmlns="http://www.w3.org/2000/svg" fill="none" height="100%" overflow="visible" preserveAspectRatio="none" style="display: block;" viewBox="0 0 88 21" width="100%">
<g id="Group 2">
<path d="M85.5863 20.145C84.0222 20.145 83.2131 19.0393 82.9974 17.3403L82.9165 16.747C82.5928 18.446 80.9748 20.1989 78.4937 20.1989C76.2015 20.1989 74.6104 18.7157 74.6104 16.72C74.6104 14.9132 75.9048 13.6187 78.305 13.403L82.4041 13.0794L82.2153 11.704C81.8917 9.24993 80.786 7.63186 78.7364 7.63186C77.1453 7.63186 75.9587 8.62967 75.3654 10.059L75.0149 9.97807C75.5273 8.06335 77.469 5.98682 80.2197 5.98682C82.9434 5.98682 84.6694 7.7667 85.0739 10.9759L85.856 16.9358C86.0178 18.0954 86.4762 18.446 86.9347 18.446C87.3122 18.446 87.5819 18.1224 87.6628 17.6639L87.9864 17.6909C87.9325 18.8505 87.0965 20.145 85.5863 20.145ZM77.3341 16.1267C77.3341 17.4212 78.278 18.6078 79.923 18.6078C81.649 18.6078 82.7007 17.3673 82.8356 16.1267L82.458 13.4839L79.8152 13.6996C78.1701 13.8614 77.3341 14.8323 77.3341 16.1267Z" fill="var(--fill-0, white)" id="Vector"/>
<path d="M68.1157 19.9292V19.5786C69.4371 19.5786 70.381 19.0663 70.1383 17.2324L69.2753 11.0568C68.9517 8.79148 68.0078 7.60489 66.4706 7.60489C64.8795 7.60489 63.9896 8.87238 63.8008 10.3017C63.8278 10.5714 63.8548 10.868 63.8548 11.1647V17.2055C63.8548 19.0663 64.6638 19.5786 65.7425 19.5786V19.9292H59.1623V19.5786C60.2141 19.5786 60.9692 19.0663 60.9692 17.2055V11.6231C60.9692 9.00722 59.9174 7.57792 58.1376 7.57792C56.6543 7.57792 55.5217 8.81845 55.3599 10.1129V17.2055C55.3599 19.0663 56.115 19.5786 57.1667 19.5786V19.9292H50.5596V19.5786C51.6383 19.5786 52.4473 19.0663 52.4473 17.2055V9.196C52.4473 7.87457 51.908 7.44308 50.6674 7.41612V7.06553C52.0967 6.95766 53.7148 6.66101 55.1171 6.01378L55.3599 6.14862V9.03419C55.8992 7.47005 57.4364 5.98682 59.432 5.98682C61.4276 5.98682 63.0997 7.20037 63.666 9.43871C64.0975 7.63186 65.6077 5.98682 67.7921 5.98682C70.1113 5.98682 71.7024 7.44308 72.2148 10.9759L73.1317 17.2324C73.4014 19.0663 74.1835 19.5786 75.2891 19.5786V19.9292H68.1157Z" fill="var(--fill-0, white)" id="Vector_2"/>
<path d="M40.791 19.9292V19.5786C41.8697 19.5786 42.6788 19.0663 42.6788 17.2055V9.196C42.6788 7.87457 42.1664 7.44308 40.8989 7.41612V7.06553C42.3552 6.95766 43.9732 6.66101 45.3486 6.01378L45.5913 6.14862V9.08813C46.0228 7.55095 47.1824 5.98682 48.8814 5.98682C50.2028 5.98682 51.0119 6.95766 51.0119 7.95547C51.0119 8.79148 50.4455 9.57355 49.4747 9.57355C48.4769 9.57355 48.2342 8.73754 47.9914 8.17122C47.8296 7.7667 47.6948 7.57792 47.3442 7.57792C46.5082 7.57792 45.7531 8.79148 45.5913 10.1129V17.2055C45.5913 19.0663 46.6431 19.5786 48.0454 19.5786V19.9292H40.791Z" fill="var(--fill-0, white)" id="Vector_3"/>
<path d="M35.421 20.1989C31.6455 20.1989 29.1914 16.9897 29.1914 13.1603C29.1914 9.06116 32.1309 5.98682 35.7446 5.98682C38.9538 5.98682 40.8146 8.38696 40.8146 11.1647H32.05C32.023 11.3265 32.023 11.4613 32.023 11.6231C32.023 15.4526 33.9108 18.0415 36.9042 18.0145C39.1426 18.0145 40.6258 16.5043 41.0573 14.4817L41.4348 14.5356C40.9494 17.7448 38.6032 20.1989 35.421 20.1989ZM32.077 10.7062H36.7964C37.6054 10.7062 37.902 10.3286 37.902 9.49264C37.902 8.22515 37.2548 6.39133 35.5289 6.39133C33.8838 6.39133 32.4006 8.35999 32.077 10.7062Z" fill="var(--fill-0, white)" id="Vector_4"/>
<path d="M4.69242 19.9293V19.5787C5.7981 19.5787 6.58017 19.0663 6.58017 17.2055V1.5102H5.1239C2.58892 1.5102 0.916909 3.42492 0.377551 6.20262L0 6.14868L0.862973 1.05175H13.9424C15.3717 0.943876 16.9898 0.64723 18.3921 0L18.6348 0.13484V9.38483C19.1202 7.52405 20.6305 5.98688 22.707 5.98688C24.9723 5.98688 26.5364 7.52405 27.0218 10.9759L27.9388 17.2325C28.1815 19.0663 28.9635 19.5787 30.0692 19.5787V19.9293H22.8958V19.5787C24.2172 19.5787 25.1611 19.0663 24.9183 17.2325L24.0823 11.0568C23.7857 8.92638 22.9227 7.60495 21.2777 7.60495C19.8754 7.60495 18.7966 8.95335 18.6348 10.5445V17.2055C18.6348 19.0663 19.4169 19.5787 20.5226 19.5787V19.9293H13.8345V19.5787C14.9133 19.5787 15.7223 19.0663 15.7223 17.2055V3.37099C14.8863 2.21137 13.7267 1.5102 12.1895 1.5102H9.65451V17.2055C9.65451 19.0663 10.4366 19.5787 11.5423 19.5787V19.9293H4.69242Z" fill="var(--fill-0, white)" id="Vector_5"/>
</g>
</svg>