<?xml version="1.0" encoding="utf-8"?>
<svg xmlns="http://www.w3.org/2000/svg" fill="none" height="100%" overflow="visible" preserveAspectRatio="none" style="display: block;" viewBox="0 0 88 21" width="100%">
<g id="Group">
<path d="M85.5866 20.145C84.0225 20.145 83.2134 19.0393 82.9977 17.3404L82.9168 16.7471C82.5932 18.4461 80.9751 20.199 78.4941 20.199C76.2018 20.199 74.6107 18.7157 74.6107 16.7201C74.6107 14.9133 75.9051 13.6188 78.3053 13.4031L82.4044 13.0794L82.2156 11.7041C81.892 9.24999 80.7863 7.63192 78.7368 7.63192C77.1457 7.63192 75.9591 8.62973 75.3658 10.059L75.0152 9.97813C75.5276 8.0634 77.4693 5.98688 80.22 5.98688C82.9438 5.98688 84.6697 7.76676 85.0742 10.9759L85.8563 16.9358C86.0181 18.0955 86.4766 18.4461 86.935 18.4461C87.3126 18.4461 87.5822 18.1224 87.6631 17.664L87.9868 17.6909C87.9328 18.8506 87.0968 20.145 85.5866 20.145ZM77.3344 16.1268C77.3344 17.4213 78.2783 18.6079 79.9234 18.6079C81.6493 18.6079 82.701 17.3673 82.8359 16.1268L82.4583 13.484L79.8155 13.6997C78.1704 13.8615 77.3344 14.8323 77.3344 16.1268Z" fill="var(--fill-0, white)" id="Vector"/>
<path d="M68.1154 19.9293V19.5787C69.4368 19.5787 70.3807 19.0663 70.138 17.2325L69.275 11.0568C68.9514 8.79154 68.0075 7.60495 66.4703 7.60495C64.8792 7.60495 63.9893 8.87244 63.8005 10.3017C63.8275 10.5714 63.8544 10.8681 63.8544 11.1647V17.2055C63.8544 19.0663 64.6635 19.5787 65.7422 19.5787V19.9293H59.162V19.5787C60.2138 19.5787 60.9689 19.0663 60.9689 17.2055V11.6232C60.9689 9.00728 59.9171 7.57798 58.1372 7.57798C56.654 7.57798 55.5214 8.81851 55.3596 10.113V17.2055C55.3596 19.0663 56.1147 19.5787 57.1664 19.5787V19.9293H50.5593V19.5787C51.638 19.5787 52.447 19.0663 52.447 17.2055V9.19606C52.447 7.87463 51.9077 7.44314 50.6671 7.41617V7.06559C52.0964 6.95772 53.7145 6.66107 55.1168 6.01384L55.3596 6.14868V9.03425C55.8989 7.47011 57.4361 5.98688 59.4317 5.98688C61.4273 5.98688 63.0993 7.20043 63.6657 9.43877C64.0972 7.63192 65.6074 5.98688 67.7918 5.98688C70.111 5.98688 71.7021 7.44314 72.2145 10.9759L73.1314 17.2325C73.4011 19.0663 74.1832 19.5787 75.2888 19.5787V19.9293H68.1154Z" fill="var(--fill-0, white)" id="Vector_2"/>
<path d="M40.7907 19.9293V19.5787C41.8694 19.5787 42.6785 19.0663 42.6785 17.2055V9.19606C42.6785 7.87463 42.1661 7.44314 40.8986 7.41617V7.06559C42.3549 6.95772 43.9729 6.66107 45.3483 6.01384L45.591 6.14868V9.08819C46.0225 7.55101 47.1821 5.98688 48.8811 5.98688C50.2025 5.98688 51.0116 6.95772 51.0116 7.95553C51.0116 8.79154 50.4452 9.57361 49.4744 9.57361C48.4766 9.57361 48.2339 8.7376 47.9912 8.17128C47.8294 7.76676 47.6945 7.57798 47.3439 7.57798C46.5079 7.57798 45.7528 8.79154 45.591 10.113V17.2055C45.591 19.0663 46.6428 19.5787 48.0451 19.5787V19.9293H40.7907Z" fill="var(--fill-0, white)" id="Vector_3"/>
<path d="M35.4209 20.199C31.6454 20.199 29.1913 16.9898 29.1913 13.1603C29.1913 9.06122 32.1308 5.98688 35.7445 5.98688C38.9537 5.98688 40.8145 8.38702 40.8145 11.1647H32.0499C32.023 11.3265 32.023 11.4614 32.023 11.6232C32.023 15.4526 33.9107 18.0415 36.9042 18.0146C39.1425 18.0146 40.6257 16.5044 41.0572 14.4818L41.4348 14.5357C40.9493 17.7449 38.6031 20.199 35.4209 20.199ZM32.0769 10.7063H36.7963C37.6053 10.7063 37.902 10.3287 37.902 9.4927C37.902 8.22521 37.2547 6.39139 35.5288 6.39139C33.8837 6.39139 32.4005 8.36005 32.0769 10.7063Z" fill="var(--fill-0, white)" id="Vector_4"/>
<path d="M4.69242 19.9293V19.5787C5.7981 19.5787 6.58017 19.0663 6.58017 17.2055V1.5102H5.1239C2.58892 1.5102 0.916908 3.42492 0.37755 6.20262L-6.85453e-07 6.14868L0.862973 1.05175H13.9424C15.3717 0.943876 16.9898 0.647229 18.3921 -1.63913e-07L18.6348 0.134839V9.38483C19.1202 7.52405 20.6305 5.98688 22.707 5.98688C24.9723 5.98688 26.5364 7.52405 27.0218 10.9759L27.9388 17.2325C28.1815 19.0663 28.9635 19.5787 30.0692 19.5787V19.9293H22.8958V19.5787C24.2172 19.5787 25.1611 19.0663 24.9183 17.2325L24.0823 11.0568C23.7857 8.92638 22.9227 7.60495 21.2777 7.60495C19.8754 7.60495 18.7966 8.95335 18.6348 10.5445V17.2055C18.6348 19.0663 19.4169 19.5787 20.5226 19.5787V19.9293H13.8345V19.5787C14.9133 19.5787 15.7223 19.0663 15.7223 17.2055V3.37099C14.8863 2.21137 13.7267 1.5102 12.1895 1.5102H9.65451V17.2055C9.65451 19.0663 10.4366 19.5787 11.5423 19.5787V19.9293H4.69242Z" fill="var(--fill-0, white)" id="Vector_5"/>
</g>
</svg>