<svg width="94" height="36" viewBox="0 0 94 36" fill="none" xmlns="http://www.w3.org/2000/svg">
<rect width="94" height="36" rx="18" fill="white"/>
<path d="M23.5 22.5H20.7891V14.5H23.5547C24.349 14.5 25.0313 14.6602 25.6016 14.9805C26.1745 15.2982 26.6146 15.7552 26.9219 16.3516C27.2292 16.9479 27.3828 17.6615 27.3828 18.4922C27.3828 19.3255 27.2279 20.0417 26.918 20.6406C26.6107 21.2396 26.1667 21.6992 25.5859 22.0195C25.0078 22.3398 24.3125 22.5 23.5 22.5ZM22.2383 21.2461H23.4297C23.987 21.2461 24.4518 21.1445 24.8242 20.9414C25.1966 20.7357 25.4766 20.4297 25.6641 20.0234C25.8516 19.6146 25.9453 19.1042 25.9453 18.4922C25.9453 17.8802 25.8516 17.3724 25.6641 16.9687C25.4766 16.5625 25.1992 16.2591 24.832 16.0586C24.4674 15.8555 24.0143 15.7539 23.4727 15.7539H22.2383V21.2461ZM31.3145 22.6172C30.7285 22.6172 30.2207 22.4883 29.791 22.2305C29.3613 21.9727 29.028 21.612 28.791 21.1484C28.5566 20.6849 28.4395 20.1432 28.4395 19.5234C28.4395 18.9036 28.5566 18.3607 28.791 17.8945C29.028 17.4284 29.3613 17.0664 29.791 16.8086C30.2207 16.5508 30.7285 16.4219 31.3145 16.4219C31.9004 16.4219 32.4082 16.5508 32.8379 16.8086C33.2676 17.0664 33.5996 17.4284 33.834 17.8945C34.071 18.3607 34.1895 18.9036 34.1895 19.5234C34.1895 20.1432 34.071 20.6849 33.834 21.1484C33.5996 21.612 33.2676 21.9727 32.8379 22.2305C32.4082 22.4883 31.9004 22.6172 31.3145 22.6172ZM31.3223 21.4844C31.64 21.4844 31.9056 21.3971 32.1191 21.2227C32.3327 21.0456 32.4915 20.8086 32.5957 20.5117C32.7025 20.2148 32.7559 19.8841 32.7559 19.5195C32.7559 19.1523 32.7025 18.8203 32.5957 18.5234C32.4915 18.224 32.3327 17.9857 32.1191 17.8086C31.9056 17.6315 31.64 17.543 31.3223 17.543C30.9967 17.543 30.7259 17.6315 30.5098 17.8086C30.2962 17.9857 30.1361 18.224 30.0293 18.5234C29.9251 18.8203 29.873 19.1523 29.873 19.5195C29.873 19.8841 29.9251 20.2148 30.0293 20.5117C30.1361 20.8086 30.2962 21.0456 30.5098 21.2227C30.7259 21.3971 30.9967 21.4844 31.3223 21.4844ZM36.4561 22.5L34.7607 16.5H36.2021L37.2568 20.7187H37.3115L38.3896 16.5H39.8154L40.8936 20.6953H40.9521L41.9912 16.5H43.4365L41.7373 22.5H40.2646L39.1396 18.4453H39.0576L37.9326 22.5H36.4561ZM45.8379 18.9844V22.5H44.4238V16.5H45.7754V17.5195H45.8457C45.9837 17.1836 46.2038 16.9167 46.5059 16.7187C46.8105 16.5208 47.1868 16.4219 47.6348 16.4219C48.0488 16.4219 48.4095 16.5104 48.7168 16.6875C49.0267 16.8646 49.2663 17.1211 49.4355 17.457C49.6074 17.793 49.6921 18.2005 49.6895 18.6797V22.5H48.2754V18.8984C48.2754 18.4974 48.1712 18.1836 47.9629 17.957C47.7572 17.7305 47.472 17.6172 47.1074 17.6172C46.86 17.6172 46.64 17.6719 46.4473 17.7812C46.2572 17.888 46.1074 18.043 45.998 18.2461C45.8913 18.4492 45.8379 18.6953 45.8379 18.9844ZM52.541 14.5V22.5H51.127V14.5H52.541ZM56.6123 22.6172C56.0264 22.6172 55.5186 22.4883 55.0889 22.2305C54.6592 21.9727 54.3258 21.612 54.0889 21.1484C53.8545 20.6849 53.7373 20.1432 53.7373 19.5234C53.7373 18.9036 53.8545 18.3607 54.0889 17.8945C54.3258 17.4284 54.6592 17.0664 55.0889 16.8086C55.5186 16.5508 56.0264 16.4219 56.6123 16.4219C57.1982 16.4219 57.7061 16.5508 58.1357 16.8086C58.5654 17.0664 58.8975 17.4284 59.1318 17.8945C59.3688 18.3607 59.4873 18.9036 59.4873 19.5234C59.4873 20.1432 59.3688 20.6849 59.1318 21.1484C58.8975 21.612 58.5654 21.9727 58.1357 22.2305C57.7061 22.4883 57.1982 22.6172 56.6123 22.6172ZM56.6201 21.4844C56.9378 21.4844 57.2035 21.3971 57.417 21.2227C57.6305 21.0456 57.7894 20.8086 57.8936 20.5117C58.0003 20.2148 58.0537 19.8841 58.0537 19.5195C58.0537 19.1523 58.0003 18.8203 57.8936 18.5234C57.7894 18.224 57.6305 17.9857 57.417 17.8086C57.2035 17.6315 56.9378 17.543 56.6201 17.543C56.2946 17.543 56.0238 17.6315 55.8076 17.8086C55.5941 17.9857 55.4339 18.224 55.3271 18.5234C55.223 18.8203 55.1709 19.1523 55.1709 19.5195C55.1709 19.8841 55.223 20.2148 55.3271 20.5117C55.4339 20.8086 55.5941 21.0456 55.8076 21.2227C56.0238 21.3971 56.2946 21.4844 56.6201 21.4844ZM62.4141 22.6211C62.0339 22.6211 61.6914 22.5534 61.3867 22.418C61.0846 22.2799 60.8451 22.0768 60.668 21.8086C60.4935 21.5404 60.4063 21.2096 60.4063 20.8164C60.4063 20.4779 60.4688 20.1979 60.5938 19.9766C60.7188 19.7552 60.8893 19.5781 61.1055 19.4453C61.3216 19.3125 61.5651 19.2122 61.8359 19.1445C62.1094 19.0742 62.3919 19.0234 62.6836 18.9922C63.0352 18.9557 63.3203 18.9232 63.5391 18.8945C63.7578 18.8633 63.9167 18.8164 64.0156 18.7539C64.1172 18.6888 64.168 18.5885 64.168 18.4531V18.4297C64.168 18.1354 64.0807 17.9076 63.9063 17.7461C63.7318 17.5846 63.4805 17.5039 63.1523 17.5039C62.806 17.5039 62.5313 17.5794 62.3281 17.7305C62.1276 17.8815 61.9922 18.0599 61.9219 18.2656L60.6016 18.0781C60.7057 17.7135 60.8776 17.4089 61.1172 17.1641C61.3568 16.9167 61.6497 16.7318 61.9961 16.6094C62.3424 16.4844 62.7253 16.4219 63.1445 16.4219C63.4336 16.4219 63.7214 16.4557 64.0078 16.5234C64.2943 16.5911 64.556 16.7031 64.793 16.8594C65.0299 17.013 65.2201 17.2227 65.3633 17.4883C65.5091 17.7539 65.582 18.0859 65.582 18.4844V22.5H64.2227V21.6758H64.1758C64.0898 21.8424 63.9688 21.9987 63.8125 22.1445C63.6589 22.2878 63.4648 22.4036 63.2305 22.4922C62.9987 22.5781 62.7266 22.6211 62.4141 22.6211ZM62.7813 21.582C63.0651 21.582 63.3112 21.526 63.5195 21.4141C63.7279 21.2995 63.888 21.1484 64 20.9609C64.1146 20.7734 64.1719 20.569 64.1719 20.3477V19.6406C64.1276 19.6771 64.0521 19.7109 63.9453 19.7422C63.8411 19.7734 63.724 19.8008 63.5938 19.8242C63.4635 19.8477 63.3346 19.8685 63.207 19.8867C63.0794 19.9049 62.9688 19.9206 62.875 19.9336C62.6641 19.9622 62.4753 20.0091 62.3086 20.0742C62.1419 20.1393 62.0104 20.2305 61.9141 20.3477C61.8177 20.4622 61.7695 20.6107 61.7695 20.793C61.7695 21.0534 61.8646 21.25 62.0547 21.3828C62.2448 21.5156 62.487 21.582 62.7813 21.582ZM69.2305 22.6055C68.7591 22.6055 68.3372 22.4844 67.9648 22.2422C67.5924 22 67.2982 21.6484 67.082 21.1875C66.8659 20.7266 66.7578 20.1667 66.7578 19.5078C66.7578 18.8411 66.8672 18.2786 67.0859 17.8203C67.3073 17.3594 67.6055 17.0117 67.9805 16.7773C68.3555 16.5404 68.7734 16.4219 69.2344 16.4219C69.5859 16.4219 69.875 16.4818 70.1016 16.6016C70.3281 16.7187 70.5078 16.8607 70.6406 17.0273C70.7734 17.1914 70.8763 17.3464 70.9492 17.4922H71.0078V14.5H72.4258V22.5H71.0352V21.5547H70.9492C70.8763 21.7005 70.7708 21.8555 70.6328 22.0195C70.4948 22.181 70.3125 22.319 70.0859 22.4336C69.8594 22.5482 69.5742 22.6055 69.2305 22.6055ZM69.625 21.4453C69.9245 21.4453 70.1797 21.3646 70.3906 21.2031C70.6016 21.0391 70.7617 20.8112 70.8711 20.5195C70.9805 20.2279 71.0352 19.888 71.0352 19.5C71.0352 19.112 70.9805 18.7747 70.8711 18.4883C70.7643 18.2018 70.6055 17.9792 70.3945 17.8203C70.1862 17.6615 69.9297 17.582 69.625 17.582C69.3099 17.582 69.0469 17.6641 68.8359 17.8281C68.625 17.9922 68.4661 18.2187 68.3594 18.5078C68.2526 18.7969 68.1992 19.1276 68.1992 19.5C68.1992 19.875 68.2526 20.2096 68.3594 20.5039C68.4688 20.7956 68.6289 21.026 68.8398 21.1953C69.0534 21.362 69.3151 21.4453 69.625 21.4453Z" fill="black"/>
</svg>
