<svg width="88" height="21" viewBox="0 0 88 21" fill="none" xmlns="http://www.w3.org/2000/svg">
<path d="M85.5863 20.1455C84.0222 20.1455 83.2131 19.0398 82.9974 17.3408L82.9165 16.7475C82.5928 18.4465 80.9748 20.1994 78.4937 20.1994C76.2015 20.1994 74.6104 18.7162 74.6104 16.7205C74.6104 14.9137 75.9048 13.6192 78.305 13.4035L82.4041 13.0799L82.2153 11.7045C81.8917 9.25042 80.786 7.63235 78.7364 7.63235C77.1453 7.63235 75.9587 8.63016 75.3654 10.0595L75.0149 9.97856C75.5273 8.06383 77.469 5.9873 80.2197 5.9873C82.9434 5.9873 84.6694 7.76719 85.0739 10.9764L85.856 16.9363C86.0178 18.0959 86.4762 18.4465 86.9347 18.4465C87.3122 18.4465 87.5819 18.1229 87.6628 17.6644L87.9864 17.6914C87.9325 18.851 87.0965 20.1455 85.5863 20.1455ZM77.3341 16.1272C77.3341 17.4217 78.278 18.6083 79.923 18.6083C81.649 18.6083 82.7007 17.3678 82.8356 16.1272L82.458 13.4844L79.8152 13.7001C78.1701 13.8619 77.3341 14.8328 77.3341 16.1272Z" fill="white"/>
<path d="M68.1157 19.9297V19.5791C69.4371 19.5791 70.381 19.0667 70.1383 17.2329L69.2753 11.0573C68.9517 8.79197 68.0078 7.60538 66.4706 7.60538C64.8795 7.60538 63.9896 8.87287 63.8008 10.3022C63.8278 10.5718 63.8548 10.8685 63.8548 11.1651V17.206C63.8548 19.0667 64.6638 19.5791 65.7425 19.5791V19.9297H59.1623V19.5791C60.2141 19.5791 60.9692 19.0667 60.9692 17.206V11.6236C60.9692 9.00771 59.9174 7.57841 58.1376 7.57841C56.6543 7.57841 55.5217 8.81893 55.3599 10.1134V17.206C55.3599 19.0667 56.115 19.5791 57.1667 19.5791V19.9297H50.5596V19.5791C51.6383 19.5791 52.4473 19.0667 52.4473 17.206V9.19649C52.4473 7.87506 51.908 7.44357 50.6674 7.4166V7.06602C52.0967 6.95815 53.7148 6.6615 55.1171 6.01427L55.3599 6.14911V9.03468C55.8992 7.47054 57.4364 5.9873 59.432 5.9873C61.4276 5.9873 63.0997 7.20086 63.666 9.4392C64.0975 7.63235 65.6077 5.9873 67.7921 5.9873C70.1113 5.9873 71.7024 7.44357 72.2148 10.9764L73.1317 17.2329C73.4014 19.0667 74.1835 19.5791 75.2891 19.5791V19.9297H68.1157Z" fill="white"/>
<path d="M40.791 19.9297V19.5791C41.8697 19.5791 42.6788 19.0667 42.6788 17.206V9.19649C42.6788 7.87506 42.1664 7.44357 40.8989 7.4166V7.06602C42.3552 6.95815 43.9732 6.6615 45.3486 6.01427L45.5913 6.14911V9.08861C46.0228 7.55144 47.1824 5.9873 48.8814 5.9873C50.2028 5.9873 51.0119 6.95815 51.0119 7.95596C51.0119 8.79197 50.4455 9.57404 49.4747 9.57404C48.4769 9.57404 48.2342 8.73803 47.9914 8.17171C47.8296 7.76719 47.6948 7.57841 47.3442 7.57841C46.5082 7.57841 45.7531 8.79197 45.5913 10.1134V17.206C45.5913 19.0667 46.6431 19.5791 48.0454 19.5791V19.9297H40.791Z" fill="white"/>
<path d="M35.4209 20.1994C31.6454 20.1994 29.1913 16.9902 29.1913 13.1608C29.1913 9.06165 32.1308 5.9873 35.7445 5.9873C38.9537 5.9873 40.8145 8.38745 40.8145 11.1651H32.0499C32.023 11.327 32.023 11.4618 32.023 11.6236C32.023 15.453 33.9107 18.042 36.9042 18.015C39.1425 18.015 40.6257 16.5048 41.0572 14.4822L41.4348 14.5361C40.9494 17.7453 38.6031 20.1994 35.4209 20.1994ZM32.0769 10.7067H36.7963C37.6053 10.7067 37.902 10.3291 37.902 9.49313C37.902 8.22564 37.2547 6.39182 35.5288 6.39182C33.8838 6.39182 32.4005 8.36048 32.0769 10.7067Z" fill="white"/>
<path d="M4.69242 19.9293V19.5787C5.7981 19.5787 6.58017 19.0663 6.58017 17.2055V1.5102H5.1239C2.58892 1.5102 0.916909 3.42492 0.377551 6.20262L0 6.14868L0.862973 1.05175H13.9424C15.3717 0.943876 16.9898 0.64723 18.3921 0L18.6348 0.13484V9.38483C19.1202 7.52405 20.6305 5.98688 22.707 5.98688C24.9723 5.98688 26.5364 7.52405 27.0218 10.9759L27.9388 17.2325C28.1815 19.0663 28.9635 19.5787 30.0692 19.5787V19.9293H22.8958V19.5787C24.2172 19.5787 25.1611 19.0663 24.9183 17.2325L24.0823 11.0568C23.7857 8.92638 22.9227 7.60495 21.2777 7.60495C19.8754 7.60495 18.7966 8.95335 18.6348 10.5445V17.2055C18.6348 19.0663 19.4169 19.5787 20.5226 19.5787V19.9293H13.8345V19.5787C14.9133 19.5787 15.7223 19.0663 15.7223 17.2055V3.37099C14.8863 2.21137 13.7267 1.5102 12.1895 1.5102H9.65451V17.2055C9.65451 19.0663 10.4366 19.5787 11.5423 19.5787V19.9293H4.69242Z" fill="white"/>
</svg>
